<svg width="31" height="19" viewBox="0 0 31 19" fill="none" xmlns="http://www.w3.org/2000/svg">
<path d="M15.788 18.051H1.96794C1.14694 18.051 0.599609 17.5036 0.599609 16.6826C0.599609 15.8616 1.14694 15.3143 1.96794 15.3143H15.788C16.609 15.3143 17.1563 15.8616 17.1563 16.6826C17.1563 17.5036 16.609 18.051 15.788 18.051ZM11.683 11.2093H1.96794C1.14694 11.2093 0.599609 10.662 0.599609 9.841C0.599609 9.02001 1.14694 8.47268 1.96794 8.47268H11.683C12.504 8.47268 13.0513 9.02001 13.0513 9.841C13.0513 10.662 12.504 11.2093 11.683 11.2093ZM15.788 4.36769H1.96794C1.14694 4.36769 0.599609 3.82036 0.599609 2.99937C0.599609 2.17837 1.14694 1.63104 1.96794 1.63104H15.788C16.609 1.63104 17.1563 2.17837 17.1563 2.99937C17.1563 3.82036 16.609 4.36769 15.788 4.36769Z" fill="#2569D7"/>
<path d="M29.131 7.17172C28.7205 7.17172 28.4469 7.03488 28.1732 6.76122L25.026 3.61406L21.8789 6.76122C21.3316 7.30855 20.5106 7.30855 19.9632 6.76122C19.4159 6.21389 19.4159 5.39289 19.9632 4.84556L24.0682 0.740576C24.6155 0.193245 25.4365 0.193245 25.9839 0.740576L30.0889 4.84556C30.6362 5.39289 30.6362 6.21389 30.0889 6.76122C29.8152 7.03488 29.5415 7.17172 29.131 7.17172Z" fill="#2569D7"/>
<path d="M29.132 12.0295C28.7215 12.0295 28.4478 12.1663 28.1742 12.44L25.027 15.5871L21.8799 12.44C21.3325 11.8926 20.5115 11.8926 19.9642 12.44C19.4169 12.9873 19.4169 13.8083 19.9642 14.3556L24.0692 18.4606C24.6165 19.0079 25.4375 19.0079 25.9849 18.4606L30.0898 14.3556C30.6372 13.8083 30.6372 12.9873 30.0898 12.44C29.8162 12.1663 29.5425 12.0295 29.132 12.0295Z" fill="#2569D7"/>
<path d="M23.6562 2.99919V5.87799L23.6687 16.8319C23.6687 17.1951 23.8129 17.5433 24.0697 17.8001C24.3265 18.0569 24.6748 18.2012 25.0379 18.2012C25.4011 18.2012 25.7493 18.0569 26.0061 17.8001C26.2629 17.5433 26.4072 17.1951 26.4072 16.8319L26.3929 5.87799V2.99919C26.3929 2.17819 25.8456 1.63086 25.0246 1.63086C24.2036 1.63086 23.6562 2.17819 23.6562 2.99919Z" fill="#2569D7"/>
</svg>
